<?xml version="1.0" standalone="no"?>
<!DOCTYPE svg PUBLIC "-//W3C//DTD SVG 20010904//EN"
 "http://www.w3.org/TR/2001/REC-SVG-20010904/DTD/svg10.dtd">
<svg version="1.0" xmlns="http://www.w3.org/2000/svg"
 width="1024.000000pt" height="700.000000pt" viewBox="-175 80 1024.000000 800.000000"
 preserveAspectRatio="xMidYMid meet">

<g transform="translate(0.000000,1024.000000) scale(0.100000,-0.100000)"
fill="#000000" stroke="none">
<path d="M3643 8978 c-123 -14 -246 -105 -300 -222 l-28 -61 -3 -289 c-3 -279
-4 -291 -25 -320 -21 -29 -22 -43 -25 -256 -3 -200 -5 -227 -21 -245 -34 -38
-36 -51 -41 -295 l-5 -245 -50 -17 c-27 -9 -124 -39 -215 -66 -414 -125 -727
-225 -771 -248 -98 -49 -155 -125 -179 -234 -8 -41 -10 -530 -8 -1905 l3
-1850 30 -54 c31 -57 84 -106 151 -139 45 -23 41 -22 1614 -207 1166 -138
1797 -213 2225 -265 132 -16 353 -43 490 -60 138 -17 291 -31 341 -31 85 0 98
3 220 50 121 47 400 149 664 244 104 37 121 46 171 96 98 99 90 -107 87 2091
l-3 1925 -27 50 c-48 92 -157 174 -258 194 -30 6 -154 20 -275 31 -121 10
-319 28 -440 40 -265 24 -1094 98 -1185 105 -36 3 -141 12 -235 20 -93 8 -332
29 -530 45 -198 17 -490 42 -649 56 l-290 25 -38 34 c-21 20 -57 40 -83 46
l-45 11 0 237 c0 217 -2 240 -20 276 -11 22 -27 43 -35 48 -13 7 -15 42 -15
218 0 223 -7 265 -52 292 -17 11 -18 29 -18 236 l0 223 73 -6 c39 -3 207 -13
372 -21 807 -42 766 -38 808 -67 20 -15 58 -29 85 -32 26 -4 256 -18 512 -31
256 -14 668 -36 915 -50 248 -14 569 -31 715 -39 146 -8 477 -27 735 -41 513
-29 519 -29 592 24 83 60 118 199 74 296 -21 46 -76 99 -127 120 -49 20 -287
41 -1309 115 -651 47 -836 60 -950 70 -247 21 -1068 80 -1114 80 -34 0 -66 -9
-107 -30 -71 -36 -80 -36 -430 -15 -204 12 -596 34 -859 48 -27 1 -78 -1 -112
-5z m517 -178 c472 -26 688 -39 728 -46 31 -5 32 -7 32 -51 l0 -46 -102 7
c-57 3 -182 11 -278 16 -96 6 -287 17 -425 25 -345 20 -412 20 -452 -5 -60
-36 -63 -53 -63 -320 l0 -240 -55 0 -55 0 0 258 c0 290 5 313 74 368 77 61 89
62 596 34z m1420 -10 c157 -11 434 -31 615 -45 718 -54 1160 -86 1380 -101
127 -8 249 -17 273 -20 l42 -5 0 -90 0 -89 -57 0 c-32 0 -123 5 -203 10 -80 6
-271 17 -425 25 -601 32 -859 46 -1085 60 -129 8 -392 22 -585 31 -192 9 -366
22 -385 28 -49 15 -73 64 -66 131 4 38 12 56 32 73 24 21 33 23 103 17 42 -3
204 -14 361 -25z m2490 -209 c0 -15 -3 -56 -6 -90 l-7 -61 -38 0 -39 0 0 90 0
90 45 0 c43 0 45 -1 45 -29z m275 3 c110 -7 151 -22 165 -60 15 -38 12 -50
-16 -83 -25 -30 -29 -31 -102 -31 -43 0 -114 3 -159 7 l-83 6 0 89 0 90 48 -6
c26 -3 92 -8 147 -12z m-4675 -774 l0 -180 -120 0 -120 0 0 173 c0 96 3 177 7
180 3 4 57 7 120 7 l113 0 0 -180z m60 -584 l0 -254 -22 -6 c-43 -13 -292 -19
-320 -7 l-28 11 0 255 0 255 185 0 185 0 0 -254z m178 -385 c8 -4 12 -19 10
-32 -4 -30 -63 -53 -172 -68 -157 -22 -443 -8 -507 25 -26 13 -45 59 -28 69 4
3 57 1 116 -5 137 -13 259 -11 398 4 141 17 167 18 183 7z m-868 -86 c27 -55
80 -89 165 -105 92 -17 512 -25 634 -11 124 13 177 35 220 88 23 29 38 39 54
37 21 -4 400 -38 537 -49 36 -3 164 -14 285 -25 121 -11 384 -33 585 -50 201
-16 464 -39 585 -50 121 -11 400 -36 620 -55 725 -64 718 -63 625 -85 -30 -7
-138 -39 -240 -72 l-184 -60 -191 16 c-161 14 -1827 152 -2415 201 -531 43
-1051 85 -1180 95 -80 6 -221 17 -315 25 -93 8 -183 15 -199 15 -16 0 -27 2
-24 5 6 7 387 123 405 124 6 1 21 -19 33 -44z m-321 -270 c174 -14 588 -48
921 -75 722 -60 929 -77 1580 -130 272 -22 626 -52 785 -65 160 -14 403 -35
540 -46 138 -12 265 -27 282 -35 18 -7 42 -28 53 -46 20 -33 20 -45 20 -1916
0 -1739 -1 -1887 -17 -1919 -22 -47 -66 -73 -124 -73 -26 0 -111 9 -190 19
-144 20 -314 41 -864 107 -159 19 -416 50 -570 69 -154 19 -428 53 -610 75
-181 22 -474 58 -650 80 -176 22 -522 65 -770 95 -889 110 -845 102 -885 168
-20 31 -20 65 -20 1825 0 1934 -3 1838 51 1876 32 22 91 21 468 -9z m5001
-162 c20 -25 20 -43 20 -1892 0 -1763 -1 -1868 -18 -1895 -15 -24 -44 -39
-187 -93 -290 -109 -417 -154 -422 -150 -2 3 -4 841 -4 1863 0 1679 -3 1964
-23 2014 -6 16 55 39 393 146 180 57 201 57 241 7z"/>
<path d="M2989 6127 c-93 -61 -91 -200 3 -257 90 -55 213 12 225 121 8 87 -58
159 -147 159 -32 0 -58 -7 -81 -23z"/>
<path d="M3417 5163 c-3 -5 -8 -30 -11 -56 -7 -44 -5 -49 13 -54 27 -7 27 -1
-13 -333 -23 -186 -30 -279 -24 -287 7 -8 35 -13 72 -13 l63 0 12 113 c19 168
15 160 70 153 73 -10 75 -16 61 -151 -6 -65 -8 -121 -3 -125 15 -14 131 -19
142 -7 5 7 14 63 21 125 13 130 6 162 -42 192 l-29 17 30 13 c46 19 72 88 85
230 8 77 -11 124 -59 152 -42 24 -377 50 -388 31z m293 -142 c13 -25 -5 -167
-26 -199 -13 -20 -22 -23 -67 -20 l-52 3 2 35 c2 19 8 72 14 118 l11 82 54 0
c42 0 55 -4 64 -19z"/>
<path d="M4475 5050 c-38 -15 -54 -45 -66 -120 -8 -57 -16 -80 -34 -95 -34
-29 -42 -79 -16 -97 l21 -15 -21 -153 c-11 -85 -19 -170 -17 -190 l3 -35 68
-3 c50 -2 67 0 67 10 0 7 9 92 20 188 11 96 20 176 20 177 0 2 22 3 50 3 55 0
74 19 68 68 -3 24 -8 28 -51 34 -27 4 -50 8 -52 10 -5 5 12 98 19 106 4 4 33
7 64 7 l56 0 8 39 c6 28 5 43 -4 52 -16 14 -175 26 -203 14z"/>
<path d="M3948 4859 c-22 -22 -27 -43 -46 -209 -27 -223 -27 -222 -3 -244 19
-17 201 -45 298 -46 49 0 66 21 61 73 l-3 32 -110 10 -110 10 -3 30 c-1 17 4
80 10 140 l13 110 48 3 c57 4 62 -5 50 -80 -8 -51 -10 -53 -43 -58 -29 -4 -36
-10 -44 -38 -6 -21 -6 -36 1 -43 5 -5 45 -12 89 -15 114 -7 120 -1 140 149 24
176 19 181 -198 193 -124 7 -127 6 -150 -17z"/>
<path d="M4695 4785 c-14 -13 -25 -32 -25 -42 0 -10 -9 -96 -20 -191 -20 -180
-18 -212 17 -230 10 -6 84 -16 165 -23 200 -17 186 -30 213 214 20 188 20 240
-3 260 -19 18 -156 37 -265 37 -48 0 -62 -4 -82 -25z m193 -91 c26 -7 27 -21
10 -176 l-11 -108 -48 0 c-26 0 -51 5 -54 10 -6 9 6 141 21 243 5 32 9 37 32
37 15 0 37 -3 50 -6z"/>
<path d="M5175 4761 c-38 -16 -47 -40 -58 -151 -13 -139 -13 -139 113 -151
104 -10 110 -12 110 -42 0 -46 -9 -49 -125 -37 -59 6 -112 7 -116 3 -4 -4 -9
-30 -11 -58 l-3 -50 110 -12 c61 -6 138 -12 172 -12 84 -1 95 14 113 149 12
97 12 103 -7 128 -18 24 -29 28 -109 35 -49 5 -94 13 -100 18 -6 5 -9 23 -6
40 l5 32 113 -7 114 -7 10 26 c5 14 10 37 10 50 0 29 -9 31 -130 40 -47 3
-107 8 -135 10 -27 3 -59 1 -70 -4z"/>
<path d="M5613 4720 c-32 -13 -40 -35 -54 -148 l-12 -103 24 -24 c20 -20 39
-25 109 -32 l85 -8 3 -39 3 -39 -93 7 c-51 4 -100 9 -108 11 -25 7 -37 -8 -43
-53 -7 -55 -5 -56 187 -73 l149 -12 22 25 c17 20 25 49 34 131 18 149 20 147
-133 166 -43 5 -82 13 -86 18 -5 4 -6 20 -3 35 l5 27 116 -2 116 -2 7 40 c4
22 3 44 -1 49 -5 5 -55 13 -112 17 -57 4 -123 10 -148 12 -25 3 -55 1 -67 -3z"/>
<path d="M7481 5916 c-85 -47 -97 -225 -19 -280 38 -27 86 -20 123 17 49 49
65 117 44 191 -20 74 -87 106 -148 72z"/>
<path d="M7481 5436 c-85 -47 -97 -225 -19 -280 49 -35 120 -9 153 54 9 18 15
57 15 101 0 67 -2 73 -34 105 -37 37 -73 43 -115 20z"/>
<path d="M7494 4960 c-48 -19 -94 -103 -94 -170 0 -32 32 -101 54 -119 22 -19
77 -19 109 -2 40 21 68 82 68 150 1 74 -21 118 -66 137 -39 16 -42 16 -71 4z"/>
<path d="M7455 4446 c-66 -70 -67 -182 -2 -253 29 -32 86 -31 126 2 39 34 54
82 49 162 -4 59 -8 69 -36 94 -47 42 -94 40 -137 -5z"/>
<path d="M7487 3985 c-103 -54 -113 -240 -16 -290 39 -21 78 -12 112 23 35 37
47 73 47 140 0 66 -25 117 -66 132 -34 13 -44 13 -77 -5z"/>
<path d="M7494 3510 c-11 -4 -33 -22 -47 -40 -75 -88 -42 -252 53 -266 77 -11
133 61 132 168 -1 68 -22 112 -62 133 -32 17 -45 18 -76 5z"/>
<path d="M7484 3026 c-40 -18 -73 -72 -81 -134 -14 -120 86 -209 168 -149 83
61 79 255 -7 287 -32 13 -42 12 -80 -4z"/>
</g>
</svg>
