<svg version="1.1" id="Layer_1" xmlns="http://www.w3.org/2000/svg" xmlns:xlink="http://www.w3.org/1999/xlink" x="0px" y="0px"
	 width="100%" viewBox="300 300 400 400" enable-background="new 0 0 1024 1024" xml:space="preserve">
<path fill="#000000" opacity="1.000000" stroke="none" 
	d="
M320.954102,546.318115 
	C320.695801,536.130737 322.995789,526.557007 324.103546,516.846069 
	C324.291656,515.196716 324.572540,513.558044 324.773895,511.910004 
	C326.311615,499.324677 324.538635,497.334534 311.778229,497.298279 
	C300.701996,497.266846 300.766937,497.275604 299.256195,508.426483 
	C297.717865,519.781616 295.913818,531.101868 294.481201,542.469543 
	C294.004517,546.251953 292.068451,547.745728 288.601379,547.779114 
	C282.608002,547.836853 276.613800,547.809082 270.619934,547.813538 
	C266.699615,547.816467 265.350128,545.821289 265.877258,542.044983 
	C269.732391,514.428223 273.670593,486.821808 277.280701,459.172729 
	C278.500488,449.830963 280.844971,440.608124 280.935760,431.293335 
	C280.369019,430.898254 280.118286,430.580109 279.832977,430.545319 
	C270.188751,429.369812 270.223694,429.380249 271.961914,419.890381 
	C274.123810,408.087555 272.521667,408.663208 285.354279,408.685333 
	C303.339386,408.716309 321.325409,408.598999 339.309265,408.754395 
	C347.205627,408.822571 354.422394,410.870636 359.628937,417.518768 
	C364.287720,423.467529 363.879883,430.335419 363.162109,437.132599 
	C362.289795,445.393219 361.024506,453.616821 359.759918,461.830383 
	C358.054138,472.909363 353.380127,481.814758 341.692230,485.080109 
	C341.835602,485.641663 341.828339,486.097717 341.987091,486.165649 
	C352.942871,490.852478 356.442841,496.097992 355.214386,508.357422 
	C354.040131,520.076233 351.979645,531.705322 350.364258,543.381592 
	C350.089508,545.367371 349.484497,547.223694 347.317017,547.359741 
	C338.585449,547.907532 329.817902,549.058960 320.954102,546.318115 
M333.061371,452.853912 
	C333.624023,448.250977 334.483612,443.660095 334.671783,439.041901 
	C334.891418,433.652344 331.973969,430.709930 326.552368,430.395874 
	C322.906158,430.184662 319.207581,430.614868 315.590881,430.221039 
	C310.913818,429.711792 308.982300,431.766571 308.444458,436.141296 
	C306.966248,448.165009 305.426117,460.182495 303.725739,472.176300 
	C303.337646,474.913910 304.257996,475.906403 306.781830,475.916473 
	C310.771179,475.932343 314.762268,476.012726 318.749603,475.926605 
	C325.782410,475.774689 330.291229,471.995636 331.498383,465.079346 
	C332.152710,461.330292 332.428528,457.515167 333.061371,452.853912 
z"/>
<path fill="#000000" opacity="1.000000" stroke="none" 
	d="
M523.818176,463.106262 
	C527.674011,457.104919 533.015320,454.627563 539.642700,454.633606 
	C554.135010,454.646851 568.628113,454.580505 583.119446,454.704834 
	C594.715942,454.804291 600.415405,460.473450 599.165955,471.833252 
	C596.857483,492.821960 594.047302,513.760681 591.093689,534.670471 
	C589.990234,542.482422 583.151367,547.989319 574.691345,548.120300 
	C559.370483,548.357483 544.040894,548.299500 528.718750,548.090149 
	C518.339600,547.948425 511.140106,541.303162 513.330933,528.302124 
	C516.586609,508.981537 518.947205,489.509399 521.622253,470.092621 
	C521.946594,467.738312 522.596313,465.548828 523.818176,463.106262 
M544.243225,506.580963 
	C543.554626,512.192322 542.840576,517.800781 542.188477,523.416321 
	C541.882874,526.048340 542.512695,528.150452 545.691589,528.255310 
	C550.012024,528.397888 554.335327,528.448364 558.656982,528.555603 
	C562.541992,528.651978 564.229675,526.741577 564.719177,522.897522 
	C566.522888,508.732819 568.537170,494.594604 570.521240,480.453339 
	C571.019592,476.901428 569.768738,474.983002 566.020935,475.038666 
	C562.024841,475.098022 558.016785,475.356812 554.035767,475.135956 
	C550.008972,474.912567 548.381470,476.652039 547.903870,480.511475 
	C546.862732,488.924072 545.529663,497.300568 544.243225,506.580963 
z"/>
<path fill="#000000" opacity="1.000000" stroke="none" 
	d="
M366.695496,517.975220 
	C368.735657,502.368469 370.872101,487.225311 372.738098,472.048950 
	C374.147217,460.588531 380.750885,454.143036 392.694672,453.904785 
	C406.521454,453.628906 420.362030,453.624817 434.188904,453.896759 
	C446.665070,454.142120 451.598450,460.832825 449.538177,473.289734 
	C448.045013,482.317749 447.144012,491.441956 445.805817,500.497711 
	C444.215881,511.257019 438.336578,516.724976 427.459290,517.208130 
	C419.974213,517.540588 412.463165,517.266846 404.964020,517.313599 
	C401.597107,517.334595 399.958862,515.943604 400.511536,512.416504 
	C400.717133,511.104187 400.657806,509.752075 400.830322,508.432617 
	C401.758667,501.331543 402.472260,500.706940 409.591370,500.601257 
	C417.257507,500.487457 417.669342,500.187073 418.875549,492.762421 
	C419.648163,488.006775 420.091125,483.192627 420.998199,478.465393 
	C421.680084,474.911774 420.396118,473.403961 416.943237,473.388428 
	C416.776581,473.387695 416.609711,473.389954 416.443329,473.381989 
	C401.665161,472.672882 401.402618,472.628754 398.945984,487.258972 
	C396.991882,498.896362 395.672699,510.645782 394.287292,522.370911 
	C393.613251,528.075500 394.314423,528.640991 400.184113,528.653992 
	C411.516724,528.679016 422.849579,528.633911 434.182068,528.676331 
	C439.761017,528.697205 440.882935,530.029785 440.178162,535.605896 
	C439.928040,537.584656 439.648407,539.571899 439.188690,541.509277 
	C438.339325,545.088501 436.443085,547.432800 432.320068,547.415222 
	C414.321625,547.338562 396.320892,547.500549 378.325073,547.263916 
	C369.868073,547.152771 363.963501,539.701721 365.030304,531.277710 
	C365.572998,526.992615 366.126801,522.708862 366.695496,517.975220 
z"/>
<path fill="#000000" opacity="1.000000" stroke="none" 
	d="
M633.094543,455.682007 
	C648.746338,455.698242 663.911926,455.685577 679.077271,455.745209 
	C684.914429,455.768188 685.907166,456.732239 685.320862,462.534576 
	C683.955933,476.043793 684.242249,476.374115 670.972656,476.151276 
	C661.975403,476.000183 652.972290,476.141022 643.977356,475.923401 
	C639.467285,475.814331 637.371399,477.258026 637.168823,482.165253 
	C636.808899,490.882477 636.520142,490.882996 645.402283,490.963379 
	C652.734131,491.029755 660.080566,490.789276 667.394897,491.173218 
	C678.525024,491.757477 682.644653,496.914276 681.109375,507.816193 
	C679.927368,516.209961 678.684570,524.596619 677.337646,532.965332 
	C675.859375,542.149780 669.766602,548.000549 660.349670,548.163696 
	C642.690308,548.469727 625.021301,548.212952 607.356262,548.200317 
	C603.538330,548.197632 601.811157,546.516174 602.515869,542.568481 
	C602.982361,539.955139 603.195496,537.297424 603.567566,534.666016 
	C604.508240,528.013245 604.854553,527.729370 611.768250,527.724609 
	C622.600708,527.717163 633.435181,527.590210 644.264648,527.766968 
	C648.354919,527.833740 650.116638,526.494202 650.769775,522.238892 
	C652.620972,510.177490 650.716736,512.545349 641.651917,512.367554 
	C634.821594,512.233459 627.985596,512.409790 621.154297,512.303711 
	C611.550354,512.154663 606.844116,507.418213 607.761963,497.874969 
	C608.731995,487.788483 610.256531,477.734680 612.025452,467.752869 
	C613.205139,461.096130 619.839417,456.504639 628.110901,455.753479 
	C629.599915,455.618256 631.108643,455.700287 633.094543,455.682007 
z"/>
<path fill="#000000" opacity="1.000000" stroke="none" 
	d="
M697.765747,469.293640 
	C700.607544,459.215454 708.173401,456.184937 717.015015,456.015533 
	C733.002808,455.709320 749.002563,455.938660 764.996155,456.075226 
	C770.955322,456.126099 771.517639,457.441284 770.762085,463.488586 
	C769.007568,477.532745 769.216370,476.303467 755.171814,476.311737 
	C746.508057,476.316864 737.843079,476.401886 729.181091,476.278351 
	C725.315918,476.223206 723.539429,477.530762 723.193481,481.686707 
	C722.364380,491.647980 722.160889,491.625946 732.359863,491.629272 
	C739.690735,491.631683 747.022888,491.565674 754.352112,491.681885 
	C764.024475,491.835236 768.073730,496.945679 766.575745,506.571594 
	C765.374878,514.287781 764.262146,522.025085 763.404663,529.785522 
	C762.104614,541.551453 756.130249,547.934814 744.544312,548.172119 
	C727.390930,548.523438 710.224854,548.242432 693.064209,548.263123 
	C688.930237,548.268127 687.319397,546.203369 687.878113,542.245117 
	C688.064026,540.928162 688.425232,539.634399 688.585022,538.315430 
	C689.849731,527.873596 689.840698,527.857117 700.115784,527.841003 
	C709.612549,527.826172 719.127869,527.494568 728.598938,527.991150 
	C734.082886,528.278687 735.961304,526.017822 736.572571,521.105286 
	C737.547241,513.271729 736.879700,512.348267 729.099060,512.359375 
	C722.101440,512.369385 715.103699,512.380554 708.106201,512.350220 
	C696.912537,512.301636 692.109375,506.367615 693.960205,495.313019 
	C695.384399,486.806000 696.472046,478.242615 697.765747,469.293640 
z"/>
<path fill="#000000" opacity="1.000000" stroke="none" 
	d="
M517.545532,432.465698 
	C512.819214,432.526672 508.483887,432.400848 504.166931,432.626740 
	C499.904694,432.849731 496.828278,434.987701 496.039948,439.378815 
	C495.279938,443.611847 494.850494,447.905792 494.326782,452.179199 
	C493.999603,454.848816 495.458984,455.687408 497.901276,455.655884 
	C502.063843,455.602173 506.228821,455.625061 510.391266,455.699768 
	C515.778381,455.796448 516.515015,456.763763 515.644287,461.938721 
	C513.080811,477.173309 512.892151,475.236572 499.630859,475.333557 
	C492.402802,475.386414 491.886810,474.357605 490.932953,482.444397 
	C488.695099,501.416504 485.807251,520.310974 483.359772,539.259766 
	C482.349579,547.080566 481.596497,548.001831 473.717743,547.856201 
	C469.058563,547.770081 464.399689,547.392151 459.744537,547.451172 
	C455.755554,547.501648 454.274811,545.763550 454.840302,541.942871 
	C456.978058,527.499695 459.128143,513.058289 461.214600,498.607635 
	C462.116272,492.362762 462.877136,486.097534 463.695953,479.840729 
	C464.040131,477.210388 463.669647,475.130768 460.277985,475.206177 
	C459.074585,475.232910 457.950439,474.779724 457.187897,473.810333 
	C454.533966,470.436615 459.243103,456.365021 463.444550,455.684296 
	C467.439362,455.037048 467.254211,452.095795 467.646423,449.367767 
	C468.662872,442.297699 469.410767,435.182190 470.652100,428.153015 
	C472.158600,419.622253 478.735291,413.290344 487.369690,412.883881 
	C498.169983,412.375427 509.010986,412.731079 519.834412,412.714478 
	C522.404785,412.710541 524.274231,413.960083 524.063538,416.531708 
	C523.711792,420.823914 522.975037,425.104706 522.083740,429.323395 
	C521.679321,431.237793 519.916321,432.174957 517.545532,432.465698 
z"/>
</svg>