<?xml version="1.0" standalone="no"?>
<!DOCTYPE svg PUBLIC "-//W3C//DTD SVG 20010904//EN"
 "http://www.w3.org/TR/2001/REC-SVG-20010904/DTD/svg10.dtd">
<svg version="1.0" xmlns="http://www.w3.org/2000/svg"
 width="1120.000000pt" height="700.000000pt" viewBox="-120 120 1100 700"
 preserveAspectRatio="xMidYMid meet">

<g transform="translate(0.000000,928.000000) scale(0.100000,-0.100000)"
fill="#000000" stroke="none">
<path d="M5200 7829 c-41 -5 -130 -33 -240 -74 -96 -37 -247 -94 -335 -127
-88 -33 -230 -86 -315 -118 -85 -32 -204 -77 -265 -99 -151 -57 -203 -82 -254
-127 -60 -52 -118 -144 -130 -207 -6 -29 -15 -356 -21 -742 -5 -379 -13 -826
-16 -992 l-6 -302 -142 6 c-140 6 -142 5 -236 -27 -124 -42 -166 -66 -181
-102 -12 -30 -12 -224 7 -2388 3 -366 9 -685 14 -710 13 -68 34 -110 80 -163
44 -50 88 -77 155 -96 22 -6 272 -29 555 -51 283 -23 567 -45 630 -51 63 -5
167 -14 230 -19 114 -9 200 -16 540 -45 96 -8 285 -24 420 -35 135 -11 329
-26 431 -35 245 -20 347 -19 439 4 41 10 233 75 425 145 193 70 489 177 660
239 325 117 365 138 417 212 61 89 58 57 68 940 5 446 10 1157 12 1582 3 766
3 772 -18 800 -26 35 -75 60 -145 73 -46 8 -383 40 -423 40 -15 0 -20 199 -36
1330 -10 698 -12 715 -58 806 -40 78 -130 152 -217 179 -28 8 -166 24 -310 35
-396 31 -1440 109 -1530 115 -44 3 -93 7 -110 9 -16 2 -59 0 -95 -5z m450
-224 c102 -9 244 -20 315 -25 72 -5 186 -14 255 -19 69 -6 200 -15 290 -21 91
-6 172 -14 180 -16 13 -5 13 -6 0 -14 -17 -9 -477 -182 -533 -199 -30 -10 -46
-10 -85 3 -75 24 -165 30 -247 16 -88 -15 -132 -39 -147 -80 -5 -17 -15 -30
-21 -30 -7 0 -52 5 -102 10 -49 5 -130 12 -180 15 -49 3 -169 12 -265 20 -96
8 -289 24 -429 35 -234 18 -272 23 -260 34 2 2 132 51 288 110 175 66 288 103
295 98 29 -23 110 -34 213 -30 131 4 200 30 210 79 3 18 12 29 22 29 9 0 99
-7 201 -15z m1594 -156 c65 -51 61 -4 75 -1024 6 -418 13 -828 15 -912 3 -108
1 -155 -7 -162 -7 -5 -32 -17 -57 -26 -25 -9 -55 -22 -67 -28 -13 -6 -25 -8
-28 -6 -2 3 -5 97 -6 209 -2 296 -21 446 -75 614 -40 121 -107 231 -181 297
-95 82 -239 105 -349 55 -75 -35 -186 -148 -242 -248 -55 -96 -116 -272 -148
-425 -26 -121 -45 -417 -36 -548 2 -33 1 -120 -3 -193 -7 -124 -9 -134 -29
-142 -11 -4 -50 -20 -86 -34 -36 -14 -68 -26 -72 -26 -5 0 -8 412 -8 915 0
661 -3 921 -11 939 -7 14 -28 32 -51 40 -33 14 -43 14 -72 2 -71 -29 -66 35
-66 -926 0 -476 -3 -908 -7 -962 l-6 -96 -76 5 c-42 3 -91 8 -110 12 l-35 7 2
309 c2 171 -1 315 -5 322 -16 23 -67 33 -197 40 -120 5 -135 4 -171 -15 -50
-25 -68 -45 -94 -102 -19 -41 -21 -65 -21 -282 0 -130 -4 -239 -9 -242 -5 -3
-96 1 -202 9 -107 8 -241 18 -299 23 l-105 7 -3 327 -2 328 -23 5 c-12 3 -73
9 -136 14 -179 13 -235 -6 -288 -97 l-28 -47 -5 -245 c-4 -187 -8 -245 -17
-244 -7 1 -29 2 -49 3 l-37 1 6 353 c4 193 10 521 13 727 3 206 9 528 13 716
l6 341 28 41 c15 23 39 49 53 59 28 18 33 18 459 -18 350 -28 869 -69 1005
-79 85 -6 196 -15 245 -20 165 -17 265 -13 357 16 46 14 322 115 613 224 292
108 537 200 545 203 30 11 58 7 84 -14z m-479 -1180 c89 -53 159 -230 184
-467 12 -116 15 -579 4 -584 -5 -2 -144 7 -310 21 l-303 24 0 142 c0 307 70
585 193 764 79 115 152 147 232 100z m-2587 -936 l24 -6 -7 -681 -8 -682 26
-41 c36 -57 78 -70 272 -82 88 -6 256 -18 373 -27 l213 -16 47 24 c36 17 52
34 69 68 23 45 23 49 30 700 l8 655 39 3 38 3 -6 -668 c-7 -660 -10 -744 -28
-793 -27 -74 -93 -134 -164 -150 -19 -5 -119 -2 -222 5 -103 7 -266 18 -362
25 -96 6 -199 18 -227 26 -62 17 -113 59 -151 123 l-27 46 4 730 c2 402 5 733
8 738 5 9 20 9 51 0z m2632 -313 c543 -41 764 -61 772 -68 3 -4 -7 -44 -22
-90 -69 -200 -198 -355 -281 -335 -65 16 -128 103 -173 241 -33 103 -28 101
-348 128 -150 12 -306 26 -345 30 l-73 6 0 58 c0 31 3 60 7 63 3 4 22 4 42 2
20 -3 209 -19 421 -35z m1125 -1167 c-4 -637 -10 -1298 -14 -1470 -6 -296 -7
-313 -27 -340 -23 -30 -23 -30 -309 -134 -104 -38 -251 -92 -325 -119 -380
-139 -584 -210 -593 -207 -7 2 -10 155 -9 468 1 255 2 919 2 1474 l0 1010 130
48 c71 26 134 47 139 47 6 0 25 -29 42 -65 35 -75 114 -165 173 -199 53 -31
137 -50 187 -43 107 14 241 122 319 257 50 85 111 230 129 307 7 29 18 56 24
62 9 7 118 56 135 60 2 1 1 -520 -3 -1156z m-4430 862 c99 -8 231 -17 293 -21
l112 -7 0 -398 c0 -423 3 -463 48 -559 34 -72 131 -170 202 -203 74 -34 135
-45 330 -57 91 -6 265 -17 387 -26 201 -14 229 -14 284 0 155 40 275 163 317
326 10 40 15 153 19 425 3 204 8 373 12 376 3 4 76 1 161 -6 85 -7 220 -18
300 -24 80 -6 220 -16 313 -23 l167 -12 0 -1492 0 -1492 -29 -7 c-28 -6 -214
4 -461 26 -285 24 -367 31 -715 59 -203 17 -419 35 -480 40 -60 5 -195 17
-300 25 -104 8 -390 31 -635 50 -245 20 -458 40 -473 47 -16 6 -40 27 -55 46
l-27 35 -6 901 c-4 496 -10 1147 -14 1449 l-6 547 38 -5 c21 -3 119 -12 218
-20z m1195 -86 c96 -6 204 -14 240 -18 l65 -6 3 -47 c3 -41 0 -48 -15 -48 -10
0 -135 9 -278 20 -143 11 -268 20 -277 20 -24 0 -23 13 8 61 21 35 29 40 52
35 15 -3 106 -10 202 -17z m40 -304 c283 -20 274 -18 266 -57 -3 -17 -6 -77
-6 -134 0 -104 0 -104 -25 -104 -20 0 -25 6 -30 38 -12 77 -31 118 -75 164
-51 52 -93 68 -183 68 -126 0 -205 -68 -223 -193 -6 -47 -7 -48 -38 -45 l-31
3 -3 144 -3 144 63 -6 c35 -4 164 -13 288 -22z m-19 -225 c12 -7 19 -21 19
-40 0 -28 -2 -30 -40 -30 -38 0 -40 2 -40 30 0 17 7 33 18 39 21 13 20 13 43
1z"/>
<path d="M3587 3158 c-4 -46 -7 -207 -7 -359 l0 -277 128 -6 c70 -4 148 -9
175 -12 l47 -6 0 55 0 56 -42 5 c-24 3 -78 8 -122 12 l-78 6 7 295 c9 329 12
313 -61 313 l-41 0 -6 -82z"/>
<path d="M4170 3009 c-96 -71 -175 -134 -175 -141 0 -14 347 -317 358 -311 4
2 7 38 7 79 l0 74 38 0 c20 0 127 -7 237 -15 110 -8 272 -19 360 -25 88 -5
176 -12 196 -15 32 -4 38 -2 42 18 8 39 9 235 0 240 -11 7 -99 14 -458 37
-170 11 -334 22 -362 26 l-53 5 0 80 c0 43 -3 79 -7 78 -5 0 -87 -58 -183
-130z"/>
<path d="M5405 2774 c-4 -190 -5 -347 -4 -348 2 -2 28 -6 57 -9 l52 -6 2 107
c0 59 0 115 0 125 -2 22 15 57 28 57 5 0 58 -64 118 -143 61 -79 116 -148 123
-154 18 -14 139 -21 139 -8 0 6 -43 64 -96 130 -52 66 -120 153 -151 193 l-56
73 147 148 c81 81 144 150 140 154 -4 4 -37 7 -73 7 l-66 0 -122 -122 -123
-123 0 127 c0 140 1 138 -69 138 l-38 0 -8 -346z"/>
</g>
</svg>
