<?xml version="1.0" standalone="no"?>
<!DOCTYPE svg PUBLIC "-//W3C//DTD SVG 20010904//EN"
 "http://www.w3.org/TR/2001/REC-SVG-20010904/DTD/svg10.dtd">
<svg version="1.0" xmlns="http://www.w3.org/2000/svg"
 width="1024.000000pt" height="700.000000pt" viewBox="-250 160 1024.000000 800.000000"
 preserveAspectRatio="xMidYMid meet">

<g transform="translate(0.000000,1120.000000) scale(0.100000,-0.100000)"
fill="#000000" stroke="none">
<path d="M6515 9019 c-804 -119 -1091 -162 -1250 -189 -937 -160 -1807 -325
-1863 -354 -42 -22 -101 -91 -128 -151 -83 -181 -45 -455 83 -604 19 -23 29
-42 23 -46 -5 -3 -10 -28 -10 -55 0 -32 -5 -50 -14 -53 -36 -14 -51 -59 -56
-171 l-5 -111 -130 -26 c-72 -15 -185 -36 -250 -47 -134 -23 -532 -98 -760
-142 -82 -16 -238 -45 -345 -65 -205 -39 -236 -49 -269 -91 -20 -25 -20 -33
-15 -502 2 -263 9 -1280 15 -2262 10 -1643 12 -1787 27 -1815 23 -40 92 -73
392 -185 486 -181 551 -197 790 -187 135 5 187 15 730 133 505 109 514 112
533 135 17 21 18 40 16 211 -2 103 0 190 3 194 4 3 91 24 195 45 103 22 240
51 303 64 63 13 201 42 305 64 105 22 307 65 450 96 425 91 421 91 463 77 20
-6 190 -63 377 -126 l340 -115 285 60 c689 146 672 142 721 174 56 36 69 75
69 203 l0 110 53 17 c78 26 113 51 135 98 40 86 37 209 -9 299 -27 52 -86 106
-131 120 -21 6 -38 16 -39 22 -2 25 2 539 12 1761 6 710 9 1422 7 1584 l-3
293 -32 27 c-75 63 -646 257 -872 296 -106 19 -340 19 -451 1 -75 -13 -459
-84 -1518 -281 -161 -30 -301 -55 -312 -55 -14 0 -20 7 -20 22 0 12 -17 37
-39 57 -31 30 -39 45 -43 84 -3 26 -13 56 -22 66 -16 17 -15 19 21 24 54 8
638 112 833 148 320 60 458 88 700 144 135 31 333 76 440 100 107 24 301 69
430 99 129 31 267 64 305 72 61 15 76 23 116 64 64 65 89 142 89 270 0 253
-131 452 -296 449 -27 -1 -197 -23 -379 -50z m445 -130 c60 -63 84 -134 85
-254 0 -89 -3 -106 -26 -150 l-25 -50 -175 -41 c-148 -35 -695 -161 -1149
-264 -69 -16 -127 -27 -129 -25 -2 2 3 28 10 57 16 66 16 238 0 298 -20 74
-53 152 -83 199 -16 24 -27 45 -24 48 5 5 527 86 886 138 135 19 313 46 395
59 201 31 189 32 235 -15z m-1591 -238 c62 -78 110 -223 111 -332 0 -65 -19
-157 -41 -200 -13 -27 -27 -39 -49 -43 -16 -3 -43 -9 -60 -12 -35 -7 -35 -8
-14 64 12 42 15 83 12 171 -5 133 -33 227 -92 317 -40 60 -43 52 29 67 56 12
73 7 104 -32z m-252 -23 c125 -136 166 -394 88 -547 -28 -56 8 -45 -320 -106
-195 -37 -485 -87 -750 -130 -82 -14 -197 -33 -255 -44 -58 -10 -106 -18 -107
-17 -1 1 4 24 13 51 47 158 14 380 -77 505 -16 22 -29 44 -29 49 0 5 30 14 67
21 37 6 183 33 323 60 140 27 334 62 430 79 96 17 261 46 365 65 231 42 227
41 252 14z m-1577 -308 c39 -28 85 -104 105 -174 32 -110 20 -268 -27 -343
-56 -92 -195 14 -232 176 -28 123 -14 243 38 321 21 32 32 40 57 40 17 0 43
-9 59 -20z m480 -659 c0 -10 -7 -22 -16 -25 -25 -10 -274 -29 -281 -22 -12 11
5 17 123 41 151 30 174 31 174 6z m2670 -11 c93 -20 323 -85 417 -116 92 -31
254 -96 250 -101 -5 -4 -141 -31 -862 -168 -192 -36 -501 -95 -685 -131 -674
-130 -799 -154 -985 -189 -104 -20 -374 -72 -600 -116 -850 -166 -1211 -235
-1330 -255 -117 -19 -332 -14 -430 10 -133 33 -745 242 -745 255 0 3 60 17
133 29 72 13 321 59 552 102 231 44 458 86 505 95 47 8 147 27 222 41 75 15
144 24 153 21 11 -5 15 -22 15 -76 0 -60 3 -74 26 -101 33 -39 81 -64 181 -92
70 -21 100 -23 303 -23 186 0 239 3 308 19 107 25 200 71 229 115 22 32 23 44
23 191 0 155 0 158 23 163 12 3 101 20 197 37 96 17 254 46 350 65 96 19 279
52 405 75 127 23 383 70 570 105 187 35 356 66 375 68 80 11 306 -2 400 -23z
m-2542 -152 c-4 -31 -46 -43 -193 -58 -126 -13 -306 -8 -395 11 -44 9 -50 14
-50 36 0 19 4 24 17 19 112 -43 383 -42 563 3 56 14 62 13 58 -11z m76 -209
c3 -34 6 -102 6 -151 l0 -88 -32 -20 c-67 -40 -168 -55 -383 -55 -163 0 -213
4 -270 19 -119 32 -115 25 -115 192 0 164 -8 153 97 127 140 -35 543 -19 653
26 14 5 28 10 31 10 3 1 9 -27 13 -60z m3202 -676 c-12 -1123 -26 -2878 -26
-3205 0 -300 0 -308 -21 -318 -11 -6 -197 -49 -412 -96 -216 -46 -402 -87
-414 -89 l-23 -5 0 175 c0 173 0 176 -25 200 -29 30 -24 30 -135 5 -49 -11
-163 -36 -252 -55 -587 -124 -870 -184 -1143 -241 -170 -35 -393 -83 -495
-105 -102 -22 -270 -58 -374 -79 -112 -24 -197 -47 -208 -57 -16 -14 -18 -38
-20 -216 l-3 -201 -150 -32 c-82 -17 -280 -59 -440 -93 -159 -35 -294 -63
-300 -64 -7 -1 -12 667 -15 1981 l-5 1984 -24 19 c-31 26 -57 24 -86 -6 l-25
-24 0 -1989 0 -1989 -59 -6 c-33 -4 -102 -4 -154 0 l-94 6 -6 1590 c-4 875 -7
1845 -7 2156 l0 566 197 0 c212 0 214 0 783 115 52 10 214 42 360 70 146 28
459 89 695 135 237 46 518 100 625 120 107 19 355 67 550 105 195 38 477 92
625 120 367 69 711 135 880 169 77 16 155 29 174 30 l34 1 -7 -677z m-5190
-108 l121 -37 7 -250 c4 -138 4 -253 2 -256 -5 -5 -139 35 -429 127 -70 23
-137 41 -147 41 -19 0 -20 -9 -20 -225 l0 -224 300 -98 300 -97 0 -169 c0
-131 -3 -168 -12 -165 -98 36 -570 178 -578 173 -6 -4 -10 -86 -10 -220 0
-212 0 -215 23 -229 12 -7 147 -55 300 -106 l277 -92 0 -159 c0 -118 -3 -159
-12 -159 -7 0 -129 38 -273 84 -143 47 -269 86 -280 88 -19 3 -20 -3 -23 -219
l-2 -222 27 -14 c16 -8 148 -54 296 -102 l267 -88 0 -118 0 -118 -280 95
c-155 53 -287 93 -295 90 -11 -4 -15 -21 -15 -61 0 -62 1 -61 -71 -34 l-26 10
-6 1066 c-4 587 -7 1249 -7 1473 l0 407 223 -77 c122 -43 276 -94 343 -115z
m-139 -546 l233 -74 0 -154 c0 -118 -3 -152 -12 -148 -7 2 -115 37 -239 78
l-226 73 -7 75 c-11 128 -8 234 7 229 6 -3 117 -38 244 -79z m-1 -805 l233
-75 3 -147 c2 -81 2 -150 1 -153 -2 -4 -111 30 -242 75 l-240 81 -3 148 c-2
83 1 147 6 147 5 0 114 -34 242 -76z m4 -792 l235 -79 3 -151 c2 -84 0 -152
-4 -152 -12 0 -458 153 -465 159 -9 9 -20 301 -11 301 4 0 113 -35 242 -78z
m5 -701 l230 -79 3 -385 2 -386 -62 23 c-35 12 -143 51 -240 87 l-178 63 0
378 c0 208 3 378 8 378 4 0 111 -36 237 -79z m5479 -15 c15 -20 22 -46 24
-100 4 -68 2 -75 -19 -90 -46 -32 -49 -25 -49 105 0 129 5 138 44 85z m-5835
3 l31 -11 0 -239 c0 -131 -2 -239 -5 -239 -2 0 -23 7 -45 16 l-40 16 0 234 c0
255 -3 244 59 223z m4633 -621 c3 -57 4 -105 2 -106 -1 -2 -88 25 -193 59
-105 35 -187 67 -183 70 6 6 232 58 312 72 60 10 57 15 62 -95z m-4594 -25 c2
-44 7 -73 15 -76 7 -2 95 -35 197 -72 102 -36 229 -83 283 -102 l97 -36 0
-284 0 -284 -22 6 c-51 16 -470 171 -563 209 l-100 41 -3 353 -2 352 47 -18
48 -18 3 -71z"/>
<path d="M6043 7527 c-205 -45 -230 -57 -219 -101 5 -21 19 -29 84 -50 42 -14
115 -38 162 -54 l85 -30 155 33 c235 50 244 53 257 71 30 41 16 55 -92 91 -49
17 -121 43 -159 57 -37 14 -71 26 -75 25 -3 0 -93 -20 -198 -42z m307 -97 c0
-3 -43 -14 -96 -24 -93 -18 -98 -18 -155 -1 -33 10 -56 21 -53 24 3 3 46 15
96 27 l91 20 58 -20 c33 -12 59 -23 59 -26z"/>
<path d="M5358 7399 c-10 -5 -18 -18 -18 -28 0 -39 56 -58 119 -41 33 9 41 15
41 33 0 13 -5 28 -12 35 -15 15 -106 15 -130 1z"/>
<path d="M5820 5096 l-95 -22 -7 -55 c-3 -30 -6 -78 -7 -108 -1 -52 0 -53 24
-47 14 4 45 9 70 13 37 5 45 3 45 -10 0 -11 -17 -19 -57 -27 -84 -18 -93 -24
-93 -70 0 -48 -4 -47 140 -16 l105 22 8 104 c4 57 4 107 0 111 -5 5 -24 5 -43
0 -77 -20 -100 -21 -100 -6 0 9 25 19 75 30 65 15 75 20 75 39 0 11 3 31 6 44
6 19 3 22 -22 21 -16 0 -72 -11 -124 -23z"/>
<path d="M5048 5093 c-58 -13 -68 -19 -68 -37 0 -12 -7 -124 -16 -249 -9 -125
-14 -230 -11 -233 3 -3 23 0 45 6 47 12 47 14 57 163 l7 98 29 6 c27 5 29 8
29 54 0 48 -1 49 -25 43 -23 -6 -25 -3 -25 25 0 25 5 32 28 36 47 10 57 20 60
64 4 48 0 49 -110 24z"/>
<path d="M5558 5041 l-116 -26 -6 -35 c-3 -19 -6 -68 -6 -109 l0 -73 35 6 c19
3 51 9 70 12 27 5 35 3 35 -9 0 -11 -22 -20 -75 -32 l-75 -16 0 -46 c0 -42 2
-45 23 -40 12 3 63 13 112 23 50 9 94 20 99 25 10 9 28 197 21 210 -3 4 -31 1
-63 -7 -73 -17 -82 -17 -82 0 0 16 8 19 93 36 l57 11 0 50 c0 27 -1 48 -2 48
-2 -1 -55 -13 -120 -28z"/>
<path d="M4513 4983 l-121 -25 -4 -44 c-2 -24 1 -44 6 -44 11 0 3 -130 -19
-294 -9 -65 -14 -120 -13 -122 2 -1 24 2 50 7 51 11 58 23 58 95 0 34 4 43 25
52 14 7 28 12 30 12 3 0 5 -30 5 -66 l0 -66 43 7 c23 4 45 10 49 14 3 3 10 57
14 120 7 113 7 114 -15 108 -28 -7 -27 0 13 102 19 47 37 105 41 129 8 51 13
51 -162 15z m47 -102 c0 -14 -61 -171 -67 -171 -5 0 7 161 14 173 6 10 53 9
53 -2z"/>
<path d="M5255 4979 c-49 -11 -92 -22 -96 -27 -8 -8 -33 -332 -26 -338 5 -5
237 43 244 50 5 5 22 223 23 289 0 45 -1 47 -27 46 -16 -1 -68 -10 -118 -20z
m44 -136 c-2 -86 -11 -108 -43 -111 -28 -4 -29 -3 -23 35 4 21 7 55 7 75 0 26
5 38 18 41 39 10 42 8 41 -40z"/>
<path d="M4808 4887 c-59 -12 -111 -26 -116 -32 -9 -10 -38 -332 -31 -340 5
-5 224 41 239 50 5 3 10 25 10 47 l0 41 -37 -6 c-21 -3 -55 -9 -76 -13 l-38
-7 7 74 c8 88 7 85 39 91 30 6 32 -6 10 -59 -21 -50 -19 -63 9 -63 42 0 76 39
92 105 15 65 19 136 7 134 -5 0 -56 -10 -115 -22z"/>
<path d="M1890 5878 c0 -35 4 -68 8 -73 4 -6 24 -16 45 -22 l37 -11 0 73 c0
71 -1 73 -27 79 -16 4 -36 9 -45 12 -16 5 -18 -2 -18 -58z"/>
<path d="M2060 5818 l0 -74 40 -10 c45 -12 50 -7 50 54 0 57 -10 80 -35 86
-13 3 -30 9 -39 12 -14 5 -16 -4 -16 -68z"/>
<path d="M1900 5062 l0 -69 39 -11 c21 -7 41 -12 45 -12 3 0 6 31 6 70 l0 69
-37 10 c-21 6 -41 11 -45 11 -5 0 -8 -31 -8 -68z"/>
<path d="M2060 5010 l0 -69 38 -10 c20 -6 40 -11 45 -11 4 0 7 31 7 69 0 68 0
69 -31 80 -57 20 -59 17 -59 -59z"/>
<path d="M1910 4270 c0 -76 -2 -73 68 -94 21 -7 22 -5 22 64 0 76 2 73 -67 94
-22 7 -23 5 -23 -64z"/>
<path d="M2070 4221 c0 -77 -2 -74 68 -95 21 -7 22 -6 22 67 0 73 0 75 -27 80
-16 3 -36 9 -45 12 -16 6 -18 0 -18 -64z"/>
<path d="M1900 3525 l0 -153 81 -31 c44 -17 83 -31 85 -31 2 0 4 43 4 95 l0
95 -36 -15 c-28 -11 -40 -12 -50 -4 -22 18 -16 34 20 52 33 15 35 15 50 -6 15
-21 16 -19 13 37 l-2 59 -82 28 -83 28 0 -154z"/>
<path d="M2110 3447 l0 -152 83 -29 c45 -16 88 -31 95 -34 14 -5 16 97 6 233
l-7 80 -81 28 c-45 15 -85 27 -89 27 -4 0 -7 -69 -7 -153z m142 -40 c-35 -17
-38 -17 -49 0 -18 24 -17 28 20 45 30 15 33 15 49 -5 16 -21 16 -22 -20 -40z"/>
<path d="M1902 3178 l3 -152 75 -28 c41 -15 78 -28 83 -28 4 0 7 41 7 90 0 97
-5 104 -49 74 -21 -15 -24 -15 -39 0 -16 16 -15 19 7 37 29 24 50 24 67 2 12
-16 13 -11 14 39 l0 56 -37 13 c-21 6 -59 20 -86 30 l-48 19 3 -152z"/>
<path d="M2112 3099 l3 -151 80 -29 c44 -16 86 -29 93 -29 9 0 12 25 12 90 0
98 -3 102 -54 75 -26 -14 -30 -14 -42 2 -19 25 -18 27 23 47 36 17 37 17 55
-6 l18 -23 -1 40 c-1 66 -9 76 -95 106 -43 16 -82 29 -87 29 -4 0 -6 -68 -5
-151z"/>
</g>
</svg>
